<?xml version="1.0" encoding="utf-8"?>
<!-- Generator: Adobe Illustrator 23.0.3, SVG Export Plug-In . SVG Version: 6.00 Build 0)  -->
<svg version="1.1" id="Capa_1" xmlns="http://www.w3.org/2000/svg" xmlns:xlink="http://www.w3.org/1999/xlink" x="0px" y="0px"
	 viewBox="0 0 1200 1200" enable-background="new 0 0 1200 1200" xml:space="preserve">
<path fill="none" stroke="#FFFFFF" stroke-width="2" d="M134.047,509.325c-1.349-1.937-1.204-4.547,0.354-6.322c8.204-9.362,28.513-30.31,39.845-22.775
	c2.512,1.672,3.774,4.228,3.463,7.011c-0.742,6.645-13.395,14.704-37.61,23.954c-0.598,0.227-1.219,0.337-1.832,0.337
	C136.622,511.53,135.03,510.739,134.047,509.325z M623.64,738.468c0,0,0.003,0.001,0.003,0.001v0L623.64,738.468z M1148.902,376.15
	c-1.686,4.257-4.938,7.71-8.454,10.643c-9.798,8.174-21.894,12.983-33.765,17.66c-5.668,2.233-11.377,3.955-17.322,5.04
	c4.265,5.293,4.64,12.907,0.531,18.493c-4.335,5.894-11.599,8.753-18.555,11.022c-49.827,16.255-102.477,16.381-153.91,9.202
	c-0.17,0.492-0.343,0.985-0.523,1.491c-0.672,1.735-1.335,3.505-2.127,5.166c-1.492,3.401-3.171,6.681-4.99,9.877
	c-23.562,43.256-71.391,74.213-116,91.938c-21.858,8.685-44.665,14.829-67.795,19.012c-22.391,4.049-46.002,3.543-67.933,7.636
	c11.86,3.564,24.219,13.577,31.546,23.478c4.066,5.499,6.261,12.843,3.982,19.283c-2.381,6.73-9.02,11.047-15.739,13.458
	c-11.75,4.217-24.551,4.077-37.033,3.886c7.469,4.32,15.163,8.839,20.231,15.821c5.068,6.982,6.803,17.16,1.736,24.143
	c-2.884,3.975-7.47,6.342-12.054,8.106c-16.956,6.524-34.73,5.502-52.14,1.552c-0.739-0.168-1.473-0.356-2.208-0.536
	c2.327,1.914,4.665,3.811,6.961,5.773c8.698,7.437,20.131,15.377,26.528,24.908c4.951,7.377,6.732,17.606,1.963,25.102
	c-3.777,5.937-10.928,9.047-17.938,9.66c-7.01,0.613-14.01-0.922-20.88-2.448c13.901,13.81,26.479,28.952,37.504,45.151
	c3.402,4.999,6.793,10.629,6.169,16.643c-0.584,5.629-4.769,10.446-9.85,12.939c-5.081,2.493-10.936,2.954-16.584,2.595
	c-10.126-0.644-19.268-4.394-28.015-9.311c-6.711-3.773-15.21-12.543-22.726-14.071c-13.308-2.705,1.535,13.128,5.296,20.058
	c4.926,9.076,9.191,18.51,12.743,28.207c4.544,12.405,7.561,27.414-0.44,37.926c-5.664,7.441-15.79,10.519-25.087,9.514
	c-9.297-1.005-17.866-5.548-25.479-10.979c-27.625-20.312-39.154-51.612-59.995-77.497c6.887,37.036,13.805,74.592,10.833,112.146
	c-0.626,7.909-1.743,15.96-5.324,23.04c-3.581,7.08-10.036,13.114-17.873,14.346c-13.216,2.078-24.528-9.437-31.473-20.872
	c-28.385-46.733-34.493-109.218-42.978-162.172c-4.217-26.319-7.762-52.714-11.079-79.13c-1.689-13.204-3.262-26.422-4.744-39.651
	c-1.577-13.228-2.971-26.438-4.38-39.735c-0.102-0.967,0.089-1.898,0.504-2.703l0.061-0.117c2.926-6.152,5.948-12.237,9.158-18.225
	c3.174-6.007,6.435-11.976,9.873-17.843c6.929-11.701,14.194-23.22,21.941-34.427c6.867-9.819,14.061-19.411,21.601-28.724
	c5.918-7.31,17.12-16.254,20.333-24.621c-29.214-6.965-65.239-1.509-94.329,3.932c-18.05,3.352-36.042,7.655-53.784,12.977
	c-9.729,2.919-20.088,5.487-29.382,9.31c-4.323,1.778-64.466,29.119-107.352,32.526C97.857,561.544,50,542.374,50,542.374
	s10.077-14.62,13.233-17.775c39.903-39.903,79.608-80.07,121.212-118.219c25.762-23.622,51.489-48.374,80.724-67.655
	c5.773-3.808,11.758-7.313,17.806-10.725c24.969-14.084,55.685-23.481,83.057-10.402c19.07,9.112,34.174,28.426,34.699,49.554
	c0.923,37.137-19.695,66.927-19.695,66.927s10.257,7.955,27.571,2.296c4.941-1.615,9.934-2.382,15.129-4.014
	c10.232-3.084,20.418-6.322,30.63-9.476c10.211-3.173,20.328-6.589,30.61-9.588c25.543-7.451,76.384-23.766,76.384-23.766
	s-12.176-44.082,28.043-71.4c12.023-8.166,23.11-17.362,35.494-24.544c12.418-7.133,25.148-13.616,38.106-19.562
	c25.93-11.876,52.657-21.77,79.869-30.2c11.976-3.71,23.91-8.218,36.38-9.953c3.862-0.537,8.117-0.711,11.313,1.524
	c2.708,1.894,4.13,5.267,4.239,8.569c0.11,3.303-0.95,6.546-2.392,9.519c-5.618,11.586-36.736,26.835-35.256,28.316
	s55.031-14.013,77.321-16.518c1.617-0.182,3.317-0.337,4.814,0.299c2.03,0.862,3.256,3.061,3.488,5.254
	c0.231,2.193-0.321,4.41-1.147,6.455c-13.179,32.635-69.427,47.437-67.391,48.849c2.037,1.412,22.483,0.88,23.136,3.233
	c0.519,1.87-0.069,3.87-0.881,5.632c-2.736,5.934-7.957,9.666-13.451,12.848c-2.097,1.215-4.257,2.329-6.422,3.417
	c18.31-0.605,37.692-1.867,55.47-1.918c10.507-0.03,21.545,3.186,31.908,1.744c30.478-4.253,60.578-10.26,90.86-15.456
	c51.097-8.768,103.359-20.537,155.341-21.596c4.975-0.101,10.565,0.178,13.951,3.825c3.073,3.309,3.256,8.568,1.483,12.721
	c-1.773,4.153-5.158,7.392-8.677,10.222c-8.713,7.007-21.742,12.191-28.173,15.624c-6.431,3.433,29.607-0.609,44.003,0.76
	c5.463,0.52,11.499,1.549,14.86,5.886c0.414,0.534,0.77,1.103,1.071,1.698C1150.454,368.214,1150.338,372.522,1148.902,376.15z
	 M737.137,338.396l0.008-0.005C737.118,338.402,737.103,338.409,737.137,338.396z M571.587,386.011c0,0,32.302-8.3,47.529-11.951
	c16.307-3.91,36.695-4.004,44.955-21.405c0.903-1.902,1.607-4.144,0.747-6.063c-1.093-2.441-4.133-3.219-6.787-3.548
	c-6.72-0.834-13.559-0.692-20.239,0.42c-1.843,0.307-3.721,0.688-5.565,0.388c-5.025-0.817-5.818-6.84-1.673-9.516
	c1.684-1.087,3.673-1.568,5.59-2.149c4.066-1.233,7.971-2.995,11.586-5.226c4.027-2.485,8.076-6.442,7.46-11.134
	c-0.548-4.169-4.8-7.051-8.984-7.476c-1.159-0.118-21.347,3.487-13.094-2.199c6.955-4.792,16.806-5.886,23.785-1.156
	c7.097,4.811,8.344,14.211,4.506,21.399c6.483,2.902,12.828,4.181,17.621,10.772c6.831,9.394-1.174,25.349-1.174,25.349
	s63.289-5.519,80.929-12.625c5.272-2.124,19.81-7.182,15.889-11.501c-3.92-4.319-38.866,5.426-43.016-1.094
	c-1.446-2.274,0.738-5.273,3.231-6.286c17.63-7.167,36.221-10.196,53.032-19.823c3.015-1.727,5.936-3.602,8.798-5.521
	c5.66-3.936,11.437-7.493,16.835-11.495c6.822-5.056,15.628-11.704,18.491-20.078c-19.464,2.387-91.07,18.475-93.636,16.589
	c-2.556-1.878,51.758-39.542,45.771-46.77c-7.923-9.565-143.707,39.609-190.936,82.022c-8.005,7.189-14.76,15.629-20.269,24.871
	C563.368,366.914,571.587,386.011,571.587,386.011z M122.873,544.124c15.858-3.576,31.511-6.494,46.954-11.668
	c11.068-3.717,21.949-8.001,32.441-12.981c10.692-5.217,20.966-11.032,30.628-17.953c3.722-2.666,6.906-7.285,5.369-11.597
	c-1.275-3.577-5.162-5.342-8.46-7.224c-13.126-7.486-21.359-22.801-20.364-37.878c0.673-10.195,5.131-19.686,8.62-29.288
	c3.489-9.603,6.051-20.223,2.877-29.934c-7.638,7.891-15.374,15.566-23.279,23.175c-4.251,4.092-8.576,8.108-12.892,12.134
	l-12.954,12.08l-51.897,48.266c-17.338,16.047-34.683,32.101-51.887,48.272c-3.867,3.652-9.358,9.51-9.358,9.51
	s27.782,8.637,42.849,7.949C108.703,546.658,115.857,545.706,122.873,544.124z M236.957,525.926c0.912-0.892,1.59-2.175,2.073-4.199
	c1.046-4.183,2.512-17.151,2.512-17.151s-9.375,8.635-19.636,14.259c-10.262,5.624-45.987,21.02-45.987,21.02
	s12.049-0.221,27.631-3.454c14.017-2.908,31.631-8.763,33.294-10.364C236.882,525.999,236.919,525.962,236.957,525.926z
	 M622.701,815.446c-0.099,0.217-0.167,0.438-0.178,0.538C622.568,816.305,622.681,815.994,622.701,815.446z M657.869,600.583
	c-14.307-8.231-29.185-15.47-44.49-21.651c-9.603-3.878-18.835-11.157-29.268-12.65c-10.496-1.502-19.984,4.46-30.398,4
	c-9.451-0.418-18.27-7.318-20.948-16.391c-11.971,13.243-35.044,14.176-48.045,1.942c-1.523-1.433-3.201-3.129-5.289-3.013
	c-1.813,0.101-3.216,1.547-4.499,2.832c-5.453,5.46-13.394,9.816-20.688,7.296c-5.327-1.841-8.957-7.054-10.267-12.536
	c-1.31-5.482-0.645-11.233,0.351-16.781c0.558-3.105,1.839-6.825,4.954-7.326c9.788-1.572,2.11,19.435,6.604,23.3
	c2.704,2.325,6.962,1.94,9.998,0.069c3.036-1.872,5.133-4.908,7.139-7.857c2.849-4.188,11.893-24.889,19.862-17.84
	c3.312,2.931,3.366,8.035,2.732,12.411c-0.634,4.376-1.652,9.069,0.289,13.041c2.837,5.805,11.076,7.155,16.908,4.373
	c5.832-2.782,9.686-8.455,12.859-14.084c3.173-5.629,8.647-16.457,10.921-15.89s0.103,25.83,8.951,34.321
	c4.227,4.057,11.132,3.873,16.495,1.515c13.456-5.916,19.133-21.742,22.241-36.109c3.56-16.453,19.366-94.503-6.089-97.444
	c-15.678-1.811-35.786,10.524-48.419,18.393c-34.742,21.639-64.609,51.598-91.047,82.63c-13.368,15.691-25.866,32.114-37.594,49.063
	c-5.905,8.533-11.612,17.203-17.143,25.982c-2.971,4.716-14.461,18.358-14.078,23.224c4.117,52.267,10.88,104.467,19.601,156.163
	c4.645,26.079,9.842,52.056,16.268,77.634c3.299,12.761,6.89,25.428,11.073,37.803c4.184,12.339,8.928,24.535,14.974,35.45
	c3.032,5.371,6.491,10.536,10.356,14.08c1.912,1.796,3.894,2.939,5.577,3.498c1.709,0.498,3.032,0.558,4.758-0.133
	c0.416-0.068,0.876-0.441,1.322-0.615l0.669-0.311c0.096-0.089,0.198-0.163,0.309-0.225c0.424-0.346,0.936-0.909,1.459-1.693
	c1.064-1.584,1.996-4.031,2.715-6.679c1.447-5.363,2.039-11.601,2.27-17.851c0.396-12.584-0.463-25.603-1.755-38.566
	c-1.363-12.98-0.077-27.167-2.097-40.168c-2.016-13.005-21.022-89.8-14.134-91.831c6.888-2.031,35.092,56.992,41.12,68.627
	c6.031,11.626,12.521,23.008,19.799,33.755c7.247,10.739,15.315,20.957,24.749,29.222c4.72,4.085,9.849,7.613,15.311,9.798
	c5.447,2.223,11.21,2.842,16.678,1.588c2.769-0.551,5.267-1.659,7.178-3.154c1.926-1.498,3.287-3.467,4.106-5.904
	c1.645-4.907,1.097-11.202-0.381-17.201c-3.058-12.157-8.923-23.999-15.244-35.395c-6.363-11.438-13.646-22.438-21.422-33.076
	c-7.76-10.658-41.411-55.266-39.401-58.032c4.564-6.281,77.551,54.614,99.803,67.102c7.334,4.116,25.268,13.181,24.985-0.338
	c-0.248-11.878-19.232-29.54-26.563-37.871c-24.248-27.555-90.202-82.911-84.366-90.294s60.938,64.195,103.006,63.074
	c4.493-0.12,10.07-1.612,10.831-6.042c0.413-2.407-0.863-4.755-2.182-6.81c-8.369-13.042-20.185-23.463-32.164-33.294
	c-24.539-20.138-87.3-55.237-83.699-60.807c3.6-5.569,45.652,20.94,53.238,26.529c23.905,17.696,56.907,21.778,85.673,14.719
	c3.438-0.844,7.603-2.886,7.286-6.412c-0.124-1.377-0.964-2.574-1.831-3.651c-5.221-6.481-12.328-11.133-19.411-15.503
	c-33.164-20.459-68.776-36.572-104.759-51.375l-0.056-0.023c-2.625-1.08-3.878-4.083-2.798-6.708
	c1.062-2.582,3.99-3.833,6.584-2.847c17.016,6.468,34.428,12.893,50.876,20.697c14.606,6.93,27.506,14.373,44.179,15.694
	c15.515,1.229,31.009-1.882,46.261-4.978c2.833-0.575,6.337-1.907,6.384-4.797c0.019-1.205-0.633-2.311-1.326-3.298
	c-0.121-0.172-0.244-0.343-0.368-0.513C670.92,608.425,664.363,604.32,657.869,600.583z M1132.759,372.893
	c-1.607-2.532-18.508-1.132-25.776-1.085c-7.294,0.024-14.64,0.217-21.991,0.471c-29.43,1.092-58.969,3.214-88.478,5.466
	c-29.505,2.346-59.051,4.77-88.539,7.358c-2.85,0.25-5.344-1.841-5.592-4.669c-0.241-2.749,1.739-5.183,4.446-5.546
	c29.465-3.904,58.937-7.388,88.504-10.353c13.26-1.338,26.528-2.595,39.817-3.746c11.055-2.827,22.023-5.866,32.777-9.389
	c17.121-5.609,47.937-20.753,47.943-25.333s-52.326,2.565-67.651,4.53c-30.661,4.042-61.315,8.646-91.882,13.729
	c-30.553,5.146-61.214,9.921-91.399,17.011c-0.006,0.001-0.334,0.051-0.334,0.051c-0.59,0.09-1.192,0.051-1.737-0.085
	c-21.17-5.38-46.792-2.346-68.354-0.749c-23.938,1.774-47.728,5.188-71.341,9.456c-97.803,17.67-196.811,39.906-291.653,69.668
	c-20.635,6.476-42.245,15.173-58.456,0.856c-7.166,8.543-26.009,12.412-26.009,12.412s61.015-55.542,31.107-109.685
	c-12.996-23.526-47.462-26.725-72.997-18.342s-46.186,27.024-66.012,45.171c-4.469,4.09-10.683,9.773-10.683,9.773
	s3.791,14.092,3.701,20.353c-0.263,18.273-15.57,39.817-8.472,56.656c4.12,9.774,13.214,16.4,19.718,24.778
	c8.14,10.485,12.177,24.071,11.084,37.3c58.63-23.931,121.781-47.975,183.725-34.817c5.01,1.064,10.205,2.37,15.179,1.15
	c5.944-1.457,10.408-6.21,14.687-10.585c23.8-24.331,52.877-43.475,84.633-55.722c9.007-3.473,18.904-6.423,28.185-3.769
	c11.598,3.316,19.32,14.879,21.649,26.715c4.599,23.379,0.685,57.618-4.333,80.759c-1.77,7.903-4.264,15.81-8.264,23.273
	c-1.969,3.702-4.392,7.336-7.303,10.621c5.81,1.699,11.586,3.448,17.352,5.302c8.606,2.758,28.221,9.733,28.221,9.733
	s25.133-0.918,37.639-2.039c13.739-1.398,27.408-3.317,40.963-5.816c13.553-2.507,26.972-5.647,40.198-9.364
	c13.258-3.604,26.266-8.014,38.909-13.116c12.683-5.077,24.904-10.804,36.469-17.812c33.893-20.539,68.96-45.718,86.51-82.495
	c0.001-0.001,0.466-0.977,0.466-0.977c0.948-1.986,3.12-2.993,5.181-2.554c14.248,1.911,28.707,3.417,43.031,4.257
	c7.162,0.4,14.328,0.63,21.333,0.405c7.122-0.257,14.349-0.742,21.498-1.368c14.319-1.284,28.599-3.187,42.552-6.065
	c6.951-1.48,13.859-3.168,20.398-5.414c3.275-1.102,17.702-3.502,17.105-9.672c-0.253-2.612-23.393-2.439-27.523-2.592
	c-14.374-0.454-28.877-0.557-43.376-0.498c-29.009,0.014-58.102,0.624-87.16,0.703c-2.872,0.008-5.18-2.288-5.188-5.128
	c-0.008-2.708,2.098-4.934,4.753-5.142c29.143-2.211,58.283-3.183,87.521-3.555c10.72-0.058,21.445-0.061,32.208,0.213
	c12.238-2.267,24.381-4.736,36.315-7.725c14.017-3.536,27.961-7.712,40.503-13.585
	C1121.646,380.798,1134.366,375.425,1132.759,372.893z M259.075,437.09c-1.226-5.575-1.062-11.101-0.246-16.348
	c1.707-10.513,5.798-20.146,11.011-28.996c5.311-8.795,11.918-16.884,20.397-23.171c4.265-3.066,9.082-5.738,14.64-6.857
	c5.501-1.188,11.792-0.304,16.77,2.699c5.712,4.164,8.699,10.121,9.372,17.187c1.401,14.72-3.912,30.365-10.765,43.168
	c-2.441,4.561-5.202,8.97-8.36,13.15c-3.172,4.165-6.695,8.155-10.942,11.613c-8.38,6.78-18.635,8.812-27.004,5.832
	C266.917,452.864,261.216,446.824,259.075,437.09z M273.988,444.91c4.059,3.399,9.076,3.273,13.731,1.075
	c19.092-9.016,31.686-36.119,34.958-55.835c0.645-3.889,0.974-7.915,0.028-11.742c-1.924-7.786-8.917-11.38-16.602-10.123
	c-8.793,1.438-19.819,8.989-23.293,17.329c1.931,0.229,4.014,0.269,5.945,0.83c8.948,2.6,12.788,16.464,8.575,30.966
	c-4.213,14.503-14.883,24.152-23.831,21.553c-1.814-0.527-5.464-3.476-5.464-3.476S271.127,442.608,273.988,444.91z
	 M745.967,468.175c-15.774-1.566-35.135,4.398-49.546,10.373c-6.033,2.501-3.842,12.185,2.788,10.113
	c15.816-4.942,34.594-3.382,49.405-10.714C753.727,475.416,750.64,468.639,745.967,468.175z M764.675,425.759
	c-19.266,1.315-38.012,11.155-56.383,16.697c-5.571,1.681-3.266,10.081,2.404,8.72c18.511-4.444,39.34-8.1,56.24-17.066
	C770.765,432.078,769.123,425.455,764.675,425.759z M689.107,407.475c-17.814,1.426-35.827,6.996-52.65,12.815
	c-6.459,2.234-3.884,12.186,2.853,10.346c17.161-4.687,36.669-4.927,52.2-14.286C695.323,414.052,694.01,407.083,689.107,407.475z
	 M819.868,445.205c-13.528-3.175-28.679,4.502-41.444,8.245c-6.931,2.032-4.045,12.478,2.98,10.81
	c6.46-1.533,12.847-3.354,19.313-4.862c6.319-1.474,13.132-2.182,19.151-4.544C824.095,453.194,825.118,446.437,819.868,445.205z
	 M761.439,405.821c6.991-0.984,13.933-2.326,20.938-3.21c6.036-0.761,12.339-0.866,18.18-2.561c4.894-1.42,4.607-8.104,0-9.649
	c-13.013-4.365-29.206,2.105-42.098,4.609C751.256,396.409,754.477,406.801,761.439,405.821z M676.857,454.051
	c-13.522-3.19-28.687,4.475-41.453,8.203c-6.935,2.025-4.047,12.47,2.979,10.811c6.462-1.526,12.851-3.341,19.319-4.841
	c6.32-1.467,13.134-2.168,19.154-4.523C681.093,462.043,682.1,455.288,676.857,454.051z M411.098,710.016
	c-2.307-6.262-11.683-3.878-10.114,2.788c1.787,7.595,3.193,15.203,4.08,22.953c0.564,4.924,0.991,11.541,4.772,15.133
	c3.017,2.865,7.423,1.385,8.765-2.314c1.605-4.423-0.081-11.189-0.875-15.727C416.349,724.986,413.853,717.497,411.098,710.016z
	 M428.303,676.317c-3.137-4.89-10.591-0.577-7.808,4.564c2.242,4.14,5.314,7.71,8.024,11.538
	c6.059,8.564,10.256,18.763,18.018,25.94c3.244,3,8.66,0.069,7.49-4.36C449.948,698.567,436.557,689.181,428.303,676.317z
	 M453.499,651.07c-5.154-4.558-12.336,2.504-7.586,7.587c8.509,9.106,18.999,19.916,30.754,24.534
	c4.299,1.689,6.898-3.672,5.379-6.996C476.803,664.733,462.554,659.078,453.499,651.07z M429.217,591.704
	c7.145,3.901,14.497,7.286,21.731,10.998c5.868,3.012,11.504,6.937,17.579,9.396c4.214,1.706,7.003-3.69,5.379-6.996
	c-6.88-13.999-26.455-16.955-39.273-22.663C428.471,579.696,423.025,588.322,429.217,591.704z M428.756,645.176
	c3.338,2.932,8.557,0.129,7.49-4.36c-3.091-13.001-14.88-24.37-21.962-35.5c-3.127-4.914-10.529-0.596-7.808,4.564
	C412.556,621.41,418.858,636.484,428.756,645.176z M404.543,682.739c1.842-14.841-5.35-31.305-7.191-46.069
	c-0.87-6.976-11.797-7.313-11.211,0c0.624,7.798,1.827,15.543,3.047,23.266c1.321,8.359,2.183,17.707,6.032,25.327
	C397.709,690.192,403.997,687.14,404.543,682.739z M334.637,426.473c-9.947,17.579-37.602,44.868-60.585,34.428
	c-1.853-0.842-3.547,1.22-2.177,2.823c8.701,10.188,26.442,5.215,36.93,0.319c14.945-6.977,24.027-21.059,28.148-36.593
	C337.318,426.076,335.355,425.204,334.637,426.473z"/>
</svg>
